<svg xmlns="http://www.w3.org/2000/svg" viewBox="0 0 662.48 212.53"><title>black</title><path d="M208,80.81h7.31a4.77,4.77,0,0,1,3.74,1.8l15.66,19.56,15.65-19.56a4.79,4.79,0,0,1,3.75-1.8h7.31v49.85H250.75V97.9l-16,19.94-16-19.94v32.76H208Z"/><path d="M273.63,80.81h7.31a4.77,4.77,0,0,1,3.74,1.8l15.66,19.56L316,82.61a4.79,4.79,0,0,1,3.75-1.8H327v49.85H316.36V97.9l-16,19.94-16-19.94v32.76H273.63Z"/><path d="M381.49,110V80.81h-7.37a3.31,3.31,0,0,0-3.31,3.31V110c0,7.12-4.56,11.75-11,11.75s-11-4.63-11-11.75V84.12a3.31,3.31,0,0,0-3.31-3.31h-7.37V110c0,10.21,5.65,17.93,14.43,20.65a25.37,25.37,0,0,0,14.58,0C375.84,127.94,381.49,120.22,381.49,110Z"/><polygon points="427.89 90.78 427.89 80.81 388.72 80.81 388.72 90.78 402.97 90.78 402.97 130.66 413.65 130.66 413.65 90.78 427.89 90.78"/><path d="M445.47,83.88l-18,46.78h11.39l4.28-11.39h19.23l4.27,11.39H478L460,83.88a4.79,4.79,0,0,0-4.48-3.07H450A4.81,4.81,0,0,0,445.47,83.88Zm1.19,25.77,5.91-16.38h.28l5.92,16.38Z"/><path d="M524.28,116.42a12.06,12.06,0,0,0-4.63-9.69,13.67,13.67,0,0,0-4.63-2.42,11.23,11.23,0,0,0,3.34-2.21A10.68,10.68,0,0,0,521.78,94c0-7.12-6-13.17-16-13.17h-21v49.85h22.43C517.8,130.66,524.28,124.18,524.28,116.42ZM495.43,90.06h9.62c3.63,0,5.69,2.14,5.69,5s-2.06,5-5.69,5h-9.62Zm11,31.34h-11V109.3h11c4.27,0,6.77,2.42,6.77,6S510.74,121.4,506.47,121.4Z"/><path d="M544,120.69V84.12a3.31,3.31,0,0,0-3.31-3.31h-7.38v49.85h33.83v-10Z"/><path d="M577.71,80.81h33.73v10H585.09v9.61h20.65V110H585.09v10.68h27.06v10H577.71a3.31,3.31,0,0,1-3.3-3.31V84.12A3.31,3.31,0,0,1,577.71,80.81Z"/><path d="M186,94.78l10.29-5.94v-8H189a3.31,3.31,0,0,0-3.31,3.31V95Z"/><polygon points="186.04 101.01 185.65 101.24 185.65 130.66 196.33 130.66 196.33 95.07 186.04 101.01"/><path d="M151.82,82.85v28.57a8.69,8.69,0,0,1-4.34,7.51l-41,23.7V130.26l33-19.07a3.3,3.3,0,0,0,1.65-2.86V71.66l6.38,3.68A8.68,8.68,0,0,1,151.82,82.85Z"/><path d="M95.72,150.27v12.38L54.66,139a8.69,8.69,0,0,1-4.33-7.52V102.87a8.67,8.67,0,0,1,4.33-7.51L83.74,78.57l10.71,6.19L62.7,103.09A3.31,3.31,0,0,0,61,106v22.38a3.3,3.3,0,0,0,1.66,2.87Z"/><path d="M151.82,124.07v7.36a8.7,8.7,0,0,1-4.34,7.52l-41,23.7V150.27Z"/><path d="M117.15,77.84V90.21L85.39,71.88a3.32,3.32,0,0,0-3.31,0L50.33,90.22V82.85a8.67,8.67,0,0,1,4.33-7.51L79.4,61.06a8.68,8.68,0,0,1,8.68,0Z"/><polygon points="95.72 130.26 95.72 142.63 67.66 126.43 67.66 107.87 78.38 101.68 78.38 120.25 95.72 130.26"/><path d="M130.15,65.33a8.68,8.68,0,0,1,4.33,7.51v33.58l0,0-10.67,6.16V75.93a3.29,3.29,0,0,0-1.66-2.86L90.36,54.73l6.38-3.68a8.66,8.66,0,0,1,8.67,0Z"/></svg>