<?xml version="1.0" encoding="utf-8"?>
<!-- Generator: Adobe Illustrator 23.1.0, SVG Export Plug-In . SVG Version: 6.00 Build 0)  -->
<svg version="1.1" id="Layer_1" xmlns="http://www.w3.org/2000/svg" xmlns:xlink="http://www.w3.org/1999/xlink" x="0px" y="0px"
	 viewBox="0 0 691.9 507.4" style="enable-background:new 0 0 691.9 507.4;" xml:space="preserve">
<style type="text/css">
	.st0{fill:#FFFFFF;}
</style>
<title></title>
<path class="st0" d="M461.3,288.3c0-6.5-5-11.5-11.5-11.5H369V149.9c0-6.1-5.4-11.5-11.5-11.5h-69.2c-6.1,0-11.5,5.4-11.5,11.5
	v126.9h-80.7c-6.5,0-11.5,5.4-11.5,11.5c0,2.9,1.1,6.1,3.2,8.3l126.9,126.9c2.2,2.2,5,3.2,8.3,3.2c2.9,0,6.1-1.1,8.3-3.2L457.7,297
	C459.9,294.4,461.3,291.5,461.3,288.3L461.3,288.3z M691.9,369c0,76.4-62,138.4-138.4,138.4H161.5C72.4,507.4,0,435,0,346
	c0-62.7,36.4-119.6,93-146c-0.4-5.4-0.7-10.5-0.7-15.5C92.3,82.5,174.8,0,276.8,0c75,0,142.4,45.4,170.8,114.6
	c16.6-14.4,37.8-22.3,59.8-22.3c50.8,0,92.3,41.4,92.3,92.3c0,17.7-5,35-14.8,49.7C647.6,249,691.9,304.9,691.9,369L691.9,369z"/>
</svg>
